<svg xmlns="http://www.w3.org/2000/svg" version="1.1" xmlns:xlink="http://www.w3.org/1999/xlink" xmlns:svgjs="http://svgjs.dev/svgjs" width="1440" height="560" preserveAspectRatio="none" viewBox="0 0 1440 560"><g mask="url(&quot;#SvgjsMask1010&quot;)" fill="none"><rect width="1440" height="560" x="0" y="0" fill="#0e2a47"></rect><path d="M-107.73 523.63L-107.73 523.63" stroke="#132e65" stroke-width="1.5"></path><path d="M-107.73 523.63L41.75 493.97" stroke="#132e65" stroke-width="1.5"></path><path d="M-107.73 523.63L-63.19 670.17" stroke="#132e65" stroke-width="1.5"></path><path d="M-107.73 523.63L109.84 350.75" stroke="#132e65" stroke-width="1.5"></path><path d="M-107.73 523.63L189.85 523.38" stroke="#132e65" stroke-width="1.5"></path><path d="M-63.19 670.17L-63.19 670.17" stroke="#132e65" stroke-width="1.5"></path><path d="M-63.19 670.17L41.75 493.97" stroke="#132e65" stroke-width="1.5"></path><path d="M-63.19 670.17L214.71 671.91" stroke="#132e65" stroke-width="1.5"></path><path d="M-63.19 670.17L189.85 523.38" stroke="#132e65" stroke-width="1.5"></path><path d="M-63.19 670.17L109.84 350.75" stroke="#132e65" stroke-width="1.5"></path><path d="M-63.19 670.17L234.35 405.15" stroke="#132e65" stroke-width="1.5"></path><path d="M109.84 350.75L109.84 350.75" stroke="#132e65" stroke-width="1.5"></path><path d="M109.84 350.75L234.35 405.15" stroke="#132e65" stroke-width="1.5"></path><path d="M109.84 350.75L41.75 493.97" stroke="#132e65" stroke-width="1.5"></path><path d="M109.84 350.75L189.85 523.38" stroke="#132e65" stroke-width="1.5"></path><path d="M109.84 350.75L393.42 382.38" stroke="#132e65" stroke-width="1.5"></path><path d="M41.75 493.97L41.75 493.97" stroke="#132e65" stroke-width="1.5"></path><path d="M41.75 493.97L189.85 523.38" stroke="#132e65" stroke-width="1.5"></path><path d="M234.35 405.15L234.35 405.15" stroke="#132e65" stroke-width="1.5"></path><path d="M234.35 405.15L189.85 523.38" stroke="#132e65" stroke-width="1.5"></path><path d="M234.35 405.15L393.42 382.38" stroke="#132e65" stroke-width="1.5"></path><path d="M189.85 523.38L189.85 523.38" stroke="#132e65" stroke-width="1.5"></path><path d="M189.85 523.38L214.71 671.91" stroke="#132e65" stroke-width="1.5"></path><path d="M189.85 523.38L343.23 651.03" stroke="#132e65" stroke-width="1.5"></path><path d="M214.71 671.91L214.71 671.91" stroke="#132e65" stroke-width="1.5"></path><path d="M214.71 671.91L343.23 651.03" stroke="#132e65" stroke-width="1.5"></path><path d="M393.42 382.38L393.42 382.38" stroke="#132e65" stroke-width="1.5"></path><path d="M393.42 382.38L524.7 348.42" stroke="#132e65" stroke-width="1.5"></path><path d="M393.42 382.38L407.6 557.69" stroke="#132e65" stroke-width="1.5"></path><path d="M393.42 382.38L513.16 517.69" stroke="#132e65" stroke-width="1.5"></path><path d="M407.6 557.69L407.6 557.69" stroke="#132e65" stroke-width="1.5"></path><path d="M407.6 557.69L513.16 517.69" stroke="#132e65" stroke-width="1.5"></path><path d="M407.6 557.69L343.23 651.03" stroke="#132e65" stroke-width="1.5"></path><path d="M407.6 557.69L189.85 523.38" stroke="#132e65" stroke-width="1.5"></path><path d="M407.6 557.69L214.71 671.91" stroke="#132e65" stroke-width="1.5"></path><path d="M343.23 651.03L343.23 651.03" stroke="#132e65" stroke-width="1.5"></path><path d="M343.23 651.03L513.16 517.69" stroke="#132e65" stroke-width="1.5"></path><path d="M343.23 651.03L234.35 405.15" stroke="#132e65" stroke-width="1.5"></path><path d="M343.23 651.03L393.42 382.38" stroke="#132e65" stroke-width="1.5"></path><path d="M524.7 348.42L524.7 348.42" stroke="#132e65" stroke-width="1.5"></path><path d="M524.7 348.42L657.04 383.41" stroke="#132e65" stroke-width="1.5"></path><path d="M524.7 348.42L513.16 517.69" stroke="#132e65" stroke-width="1.5"></path><path d="M524.7 348.42L682.14 239.05" stroke="#132e65" stroke-width="1.5"></path><path d="M524.7 348.42L703.82 491.58" stroke="#132e65" stroke-width="1.5"></path><path d="M513.16 517.69L513.16 517.69" stroke="#132e65" stroke-width="1.5"></path><path d="M682.14 239.05L682.14 239.05" stroke="#132e65" stroke-width="1.5"></path><path d="M682.14 239.05L812.72 232.67" stroke="#132e65" stroke-width="1.5"></path><path d="M657.04 383.41L657.04 383.41" stroke="#132e65" stroke-width="1.5"></path><path d="M657.04 383.41L703.82 491.58" stroke="#132e65" stroke-width="1.5"></path><path d="M703.82 491.58L703.82 491.58" stroke="#132e65" stroke-width="1.5"></path><path d="M703.82 491.58L799.7 398.91" stroke="#132e65" stroke-width="1.5"></path><path d="M703.82 491.58L709.28 671.19" stroke="#132e65" stroke-width="1.5"></path><path d="M703.82 491.58L513.16 517.69" stroke="#132e65" stroke-width="1.5"></path><path d="M709.28 671.19L709.28 671.19" stroke="#132e65" stroke-width="1.5"></path><path d="M709.28 671.19L830.64 690.52" stroke="#132e65" stroke-width="1.5"></path><path d="M709.28 671.19L513.16 517.69" stroke="#132e65" stroke-width="1.5"></path><path d="M709.28 671.19L978.17 638.53" stroke="#132e65" stroke-width="1.5"></path><path d="M709.28 671.19L799.7 398.91" stroke="#132e65" stroke-width="1.5"></path><path d="M853.05 78.9L853.05 78.9" stroke="#132e65" stroke-width="1.5"></path><path d="M853.05 78.9L959.39 90.01" stroke="#132e65" stroke-width="1.5"></path><path d="M853.05 78.9L812.72 232.67" stroke="#132e65" stroke-width="1.5"></path><path d="M812.72 232.67L812.72 232.67" stroke="#132e65" stroke-width="1.5"></path><path d="M812.72 232.67L799.7 398.91" stroke="#132e65" stroke-width="1.5"></path><path d="M799.7 398.91L799.7 398.91" stroke="#132e65" stroke-width="1.5"></path><path d="M799.7 398.91L657.04 383.41" stroke="#132e65" stroke-width="1.5"></path><path d="M830.64 690.52L830.64 690.52" stroke="#132e65" stroke-width="1.5"></path><path d="M830.64 690.52L978.17 638.53" stroke="#132e65" stroke-width="1.5"></path><path d="M830.64 690.52L977.91 534.99" stroke="#132e65" stroke-width="1.5"></path><path d="M981.18 -40.7L981.18 -40.7" stroke="#132e65" stroke-width="1.5"></path><path d="M981.18 -40.7L959.39 90.01" stroke="#132e65" stroke-width="1.5"></path><path d="M981.18 -40.7L1127.77 -91.85" stroke="#132e65" stroke-width="1.5"></path><path d="M981.18 -40.7L1102.29 70.8" stroke="#132e65" stroke-width="1.5"></path><path d="M981.18 -40.7L853.05 78.9" stroke="#132e65" stroke-width="1.5"></path><path d="M981.18 -40.7L1000.37 221.86" stroke="#132e65" stroke-width="1.5"></path><path d="M959.39 90.01L959.39 90.01" stroke="#132e65" stroke-width="1.5"></path><path d="M1000.37 221.86L1000.37 221.86" stroke="#132e65" stroke-width="1.5"></path><path d="M1000.37 221.86L1100.55 223.52" stroke="#132e65" stroke-width="1.5"></path><path d="M1000.37 221.86L959.39 90.01" stroke="#132e65" stroke-width="1.5"></path><path d="M966.03 379.6L966.03 379.6" stroke="#132e65" stroke-width="1.5"></path><path d="M966.03 379.6L977.91 534.99" stroke="#132e65" stroke-width="1.5"></path><path d="M966.03 379.6L1000.37 221.86" stroke="#132e65" stroke-width="1.5"></path><path d="M966.03 379.6L799.7 398.91" stroke="#132e65" stroke-width="1.5"></path><path d="M966.03 379.6L1147.5 393.6" stroke="#132e65" stroke-width="1.5"></path><path d="M966.03 379.6L1100.55 223.52" stroke="#132e65" stroke-width="1.5"></path><path d="M977.91 534.99L977.91 534.99" stroke="#132e65" stroke-width="1.5"></path><path d="M977.91 534.99L978.17 638.53" stroke="#132e65" stroke-width="1.5"></path><path d="M977.91 534.99L1106.92 689.89" stroke="#132e65" stroke-width="1.5"></path><path d="M977.91 534.99L1147.5 393.6" stroke="#132e65" stroke-width="1.5"></path><path d="M978.17 638.53L978.17 638.53" stroke="#132e65" stroke-width="1.5"></path><path d="M978.17 638.53L1106.92 689.89" stroke="#132e65" stroke-width="1.5"></path><path d="M978.17 638.53L966.03 379.6" stroke="#132e65" stroke-width="1.5"></path><path d="M978.17 638.53L1266.09 707.4" stroke="#132e65" stroke-width="1.5"></path><path d="M1127.77 -91.85L1127.77 -91.85" stroke="#132e65" stroke-width="1.5"></path><path d="M1127.77 -91.85L1102.29 70.8" stroke="#132e65" stroke-width="1.5"></path><path d="M1127.77 -91.85L1301.23 -58.57" stroke="#132e65" stroke-width="1.5"></path><path d="M1102.29 70.8L1102.29 70.8" stroke="#132e65" stroke-width="1.5"></path><path d="M1102.29 70.8L959.39 90.01" stroke="#132e65" stroke-width="1.5"></path><path d="M1102.29 70.8L1100.55 223.52" stroke="#132e65" stroke-width="1.5"></path><path d="M1100.55 223.52L1100.55 223.52" stroke="#132e65" stroke-width="1.5"></path><path d="M1100.55 223.52L1247.6 212.19" stroke="#132e65" stroke-width="1.5"></path><path d="M1100.55 223.52L1147.5 393.6" stroke="#132e65" stroke-width="1.5"></path><path d="M1147.5 393.6L1147.5 393.6" stroke="#132e65" stroke-width="1.5"></path><path d="M1147.5 393.6L1249.99 359.52" stroke="#132e65" stroke-width="1.5"></path><path d="M1147.5 393.6L1264.31 499.72" stroke="#132e65" stroke-width="1.5"></path><path d="M1106.92 689.89L1106.92 689.89" stroke="#132e65" stroke-width="1.5"></path><path d="M1106.92 689.89L1266.09 707.4" stroke="#132e65" stroke-width="1.5"></path><path d="M1106.92 689.89L1264.31 499.72" stroke="#132e65" stroke-width="1.5"></path><path d="M1301.23 -58.57L1301.23 -58.57" stroke="#132e65" stroke-width="1.5"></path><path d="M1301.23 -58.57L1279.67 38.16" stroke="#132e65" stroke-width="1.5"></path><path d="M1301.23 -58.57L1102.29 70.8" stroke="#132e65" stroke-width="1.5"></path><path d="M1301.23 -58.57L1247.6 212.19" stroke="#132e65" stroke-width="1.5"></path><path d="M1301.23 -58.57L1593.1 -39.57" stroke="#132e65" stroke-width="1.5"></path><path d="M1301.23 -58.57L1588.4 65.29" stroke="#132e65" stroke-width="1.5"></path><path d="M1279.67 38.16L1279.67 38.16" stroke="#132e65" stroke-width="1.5"></path><path d="M1279.67 38.16L1247.6 212.19" stroke="#132e65" stroke-width="1.5"></path><path d="M1279.67 38.16L1102.29 70.8" stroke="#132e65" stroke-width="1.5"></path><path d="M1279.67 38.16L1127.77 -91.85" stroke="#132e65" stroke-width="1.5"></path><path d="M1279.67 38.16L1100.55 223.52" stroke="#132e65" stroke-width="1.5"></path><path d="M1279.67 38.16L1450.78 259.1" stroke="#132e65" stroke-width="1.5"></path><path d="M1247.6 212.19L1247.6 212.19" stroke="#132e65" stroke-width="1.5"></path><path d="M1247.6 212.19L1249.99 359.52" stroke="#132e65" stroke-width="1.5"></path><path d="M1249.99 359.52L1249.99 359.52" stroke="#132e65" stroke-width="1.5"></path><path d="M1249.99 359.52L1264.31 499.72" stroke="#132e65" stroke-width="1.5"></path><path d="M1264.31 499.72L1264.31 499.72" stroke="#132e65" stroke-width="1.5"></path><path d="M1264.31 499.72L1443.99 503.89" stroke="#132e65" stroke-width="1.5"></path><path d="M1264.31 499.72L1404.45 386.75" stroke="#132e65" stroke-width="1.5"></path><path d="M1264.31 499.72L1266.09 707.4" stroke="#132e65" stroke-width="1.5"></path><path d="M1266.09 707.4L1266.09 707.4" stroke="#132e65" stroke-width="1.5"></path><path d="M1266.09 707.4L1440.38 688.61" stroke="#132e65" stroke-width="1.5"></path><path d="M1266.09 707.4L1443.99 503.89" stroke="#132e65" stroke-width="1.5"></path><path d="M1266.09 707.4L1593.04 650.28" stroke="#132e65" stroke-width="1.5"></path><path d="M1450.78 259.1L1450.78 259.1" stroke="#132e65" stroke-width="1.5"></path><path d="M1450.78 259.1L1546.63 191.58" stroke="#132e65" stroke-width="1.5"></path><path d="M1450.78 259.1L1404.45 386.75" stroke="#132e65" stroke-width="1.5"></path><path d="M1404.45 386.75L1404.45 386.75" stroke="#132e65" stroke-width="1.5"></path><path d="M1404.45 386.75L1443.99 503.89" stroke="#132e65" stroke-width="1.5"></path><path d="M1404.45 386.75L1249.99 359.52" stroke="#132e65" stroke-width="1.5"></path><path d="M1404.45 386.75L1545.78 513.01" stroke="#132e65" stroke-width="1.5"></path><path d="M1404.45 386.75L1247.6 212.19" stroke="#132e65" stroke-width="1.5"></path><path d="M1443.99 503.89L1443.99 503.89" stroke="#132e65" stroke-width="1.5"></path><path d="M1443.99 503.89L1545.78 513.01" stroke="#132e65" stroke-width="1.5"></path><path d="M1443.99 503.89L1440.38 688.61" stroke="#132e65" stroke-width="1.5"></path><path d="M1443.99 503.89L1593.04 650.28" stroke="#132e65" stroke-width="1.5"></path><path d="M1443.99 503.89L1249.99 359.52" stroke="#132e65" stroke-width="1.5"></path><path d="M1440.38 688.61L1440.38 688.61" stroke="#132e65" stroke-width="1.5"></path><path d="M1440.38 688.61L1593.04 650.28" stroke="#132e65" stroke-width="1.5"></path><path d="M1593.1 -39.57L1593.1 -39.57" stroke="#132e65" stroke-width="1.5"></path><path d="M1593.1 -39.57L1588.4 65.29" stroke="#132e65" stroke-width="1.5"></path><path d="M1593.1 -39.57L1546.63 191.58" stroke="#132e65" stroke-width="1.5"></path><path d="M1588.4 65.29L1588.4 65.29" stroke="#132e65" stroke-width="1.5"></path><path d="M1588.4 65.29L1546.63 191.58" stroke="#132e65" stroke-width="1.5"></path><path d="M1588.4 65.29L1450.78 259.1" stroke="#132e65" stroke-width="1.5"></path><path d="M1588.4 65.29L1279.67 38.16" stroke="#132e65" stroke-width="1.5"></path><path d="M1546.63 191.58L1546.63 191.58" stroke="#132e65" stroke-width="1.5"></path><path d="M1545.78 513.01L1545.78 513.01" stroke="#132e65" stroke-width="1.5"></path><path d="M1545.78 513.01L1593.04 650.28" stroke="#132e65" stroke-width="1.5"></path><path d="M1593.04 650.28L1593.04 650.28" stroke="#132e65" stroke-width="1.5"></path><circle r="5" cx="-107.73" cy="523.63" fill="#132e65"></circle><circle r="5" cx="-63.19" cy="670.17" fill="#132e65"></circle><circle r="5" cx="109.84" cy="350.75" fill="#132e65"></circle><circle r="5" cx="41.75" cy="493.97" fill="#132e65"></circle><circle r="5" cx="234.35" cy="405.15" fill="#132e65"></circle><circle r="5" cx="189.85" cy="523.38" fill="#132e65"></circle><circle r="5" cx="214.71" cy="671.91" fill="#132e65"></circle><circle r="5" cx="393.42" cy="382.38" fill="#132e65"></circle><circle r="5" cx="407.6" cy="557.69" fill="#132e65"></circle><circle r="5" cx="343.23" cy="651.03" fill="#132e65"></circle><circle r="5" cx="524.7" cy="348.42" fill="#132e65"></circle><circle r="5" cx="513.16" cy="517.69" fill="#132e65"></circle><circle r="5" cx="682.14" cy="239.05" fill="#132e65"></circle><circle r="5" cx="657.04" cy="383.41" fill="#132e65"></circle><circle r="5" cx="703.82" cy="491.58" fill="#132e65"></circle><circle r="5" cx="709.28" cy="671.19" fill="#132e65"></circle><circle r="5" cx="853.05" cy="78.9" fill="#132e65"></circle><circle r="5" cx="812.72" cy="232.67" fill="#132e65"></circle><circle r="5" cx="799.7" cy="398.91" fill="#132e65"></circle><circle r="5" cx="830.64" cy="690.52" fill="#132e65"></circle><circle r="5" cx="981.18" cy="-40.7" fill="#132e65"></circle><circle r="5" cx="959.39" cy="90.01" fill="#132e65"></circle><circle r="5" cx="1000.37" cy="221.86" fill="#132e65"></circle><circle r="5" cx="966.03" cy="379.6" fill="#132e65"></circle><circle r="5" cx="977.91" cy="534.99" fill="#132e65"></circle><circle r="5" cx="978.17" cy="638.53" fill="#132e65"></circle><circle r="5" cx="1127.77" cy="-91.85" fill="#132e65"></circle><circle r="5" cx="1102.29" cy="70.8" fill="#132e65"></circle><circle r="5" cx="1100.55" cy="223.52" fill="#132e65"></circle><circle r="5" cx="1147.5" cy="393.6" fill="#132e65"></circle><circle r="5" cx="1106.92" cy="689.89" fill="#132e65"></circle><circle r="5" cx="1301.23" cy="-58.57" fill="#132e65"></circle><circle r="5" cx="1279.67" cy="38.16" fill="#132e65"></circle><circle r="5" cx="1247.6" cy="212.19" fill="#132e65"></circle><circle r="5" cx="1249.99" cy="359.52" fill="#132e65"></circle><circle r="5" cx="1264.31" cy="499.72" fill="#132e65"></circle><circle r="5" cx="1266.09" cy="707.4" fill="#132e65"></circle><circle r="5" cx="1450.78" cy="259.1" fill="#132e65"></circle><circle r="5" cx="1404.45" cy="386.75" fill="#132e65"></circle><circle r="5" cx="1443.99" cy="503.89" fill="#132e65"></circle><circle r="5" cx="1440.38" cy="688.61" fill="#132e65"></circle><circle r="5" cx="1593.1" cy="-39.57" fill="#132e65"></circle><circle r="5" cx="1588.4" cy="65.29" fill="#132e65"></circle><circle r="5" cx="1546.63" cy="191.58" fill="#132e65"></circle><circle r="5" cx="1545.78" cy="513.01" fill="#132e65"></circle><circle r="5" cx="1593.04" cy="650.28" fill="#132e65"></circle><path d="M1290.31 249.96L1290.31 249.96" stroke="hsl(228.5, 77.2%, 51.5%)" stroke-width="1.5"></path><path d="M1290.31 249.96L1394.21 259.6" stroke="hsl(228.5, 77.2%, 51.5%)" stroke-width="1.5"></path><path d="M1290.31 249.96L1283.89 368.14" stroke="hsl(228.5, 77.2%, 51.5%)" stroke-width="1.5"></path><path d="M1290.31 249.96L1118.76 250.5" stroke="hsl(228.5, 77.2%, 51.5%)" stroke-width="1.5"></path><path d="M1290.31 249.96L1389.76 392.8" stroke="hsl(228.5, 77.2%, 51.5%)" stroke-width="1.5"></path><path d="M1290.31 249.96L1395.82 100.59" stroke="hsl(228.5, 77.2%, 51.5%)" stroke-width="1.5"></path><path d="M1290.31 249.96L1150.31 95.29" stroke="hsl(228.5, 77.2%, 51.5%)" stroke-width="1.5"></path><path d="M1389.76 392.8L1389.76 392.8" stroke="hsl(228.5, 77.2%, 51.5%)" stroke-width="1.5"></path><path d="M1389.76 392.8L1283.89 368.14" stroke="hsl(228.5, 77.2%, 51.5%)" stroke-width="1.5"></path><path d="M1606.2 58L1606.2 58" stroke="hsl(228.5, 77.2%, 51.5%)" stroke-width="1.5"></path><path d="M1606.2 58L1588.65 -56.28" stroke="hsl(228.5, 77.2%, 51.5%)" stroke-width="1.5"></path><path d="M1606.2 58L1578.53 220.19" stroke="hsl(228.5, 77.2%, 51.5%)" stroke-width="1.5"></path><path d="M1606.2 58L1395.82 100.59" stroke="hsl(228.5, 77.2%, 51.5%)" stroke-width="1.5"></path><path d="M1606.2 58L1608.44 345.71" stroke="hsl(228.5, 77.2%, 51.5%)" stroke-width="1.5"></path><path d="M1606.2 58L1394.21 259.6" stroke="hsl(228.5, 77.2%, 51.5%)" stroke-width="1.5"></path><path d="M1606.2 58L1292.46 -94.28" stroke="hsl(228.5, 77.2%, 51.5%)" stroke-width="1.5"></path><path d="M-74.04 537.03L-74.04 537.03" stroke="hsl(228.5, 77.2%, 51.5%)" stroke-width="1.5"></path><path d="M-74.04 537.03L39.23 513.67" stroke="hsl(228.5, 77.2%, 51.5%)" stroke-width="1.5"></path><path d="M-74.04 537.03L-70.94 680.76" stroke="hsl(228.5, 77.2%, 51.5%)" stroke-width="1.5"></path><path d="M-74.04 537.03L61.04 647.93" stroke="hsl(228.5, 77.2%, 51.5%)" stroke-width="1.5"></path><path d="M-74.04 537.03L201.88 645.62" stroke="hsl(228.5, 77.2%, 51.5%)" stroke-width="1.5"></path><path d="M-74.04 537.03L358.82 710.98" stroke="hsl(228.5, 77.2%, 51.5%)" stroke-width="1.5"></path><path d="M-70.94 680.76L-70.94 680.76" stroke="hsl(228.5, 77.2%, 51.5%)" stroke-width="1.5"></path><path d="M-70.94 680.76L61.04 647.93" stroke="hsl(228.5, 77.2%, 51.5%)" stroke-width="1.5"></path><path d="M39.23 513.67L39.23 513.67" stroke="hsl(228.5, 77.2%, 51.5%)" stroke-width="1.5"></path><path d="M39.23 513.67L61.04 647.93" stroke="hsl(228.5, 77.2%, 51.5%)" stroke-width="1.5"></path><path d="M39.23 513.67L-70.94 680.76" stroke="hsl(228.5, 77.2%, 51.5%)" stroke-width="1.5"></path><path d="M39.23 513.67L201.88 645.62" stroke="hsl(228.5, 77.2%, 51.5%)" stroke-width="1.5"></path><path d="M61.04 647.93L61.04 647.93" stroke="hsl(228.5, 77.2%, 51.5%)" stroke-width="1.5"></path><path d="M61.04 647.93L201.88 645.62" stroke="hsl(228.5, 77.2%, 51.5%)" stroke-width="1.5"></path><path d="M201.88 645.62L201.88 645.62" stroke="hsl(228.5, 77.2%, 51.5%)" stroke-width="1.5"></path><path d="M412.16 558.57L412.16 558.57" stroke="hsl(228.5, 77.2%, 51.5%)" stroke-width="1.5"></path><path d="M412.16 558.57L503.89 513.4" stroke="hsl(228.5, 77.2%, 51.5%)" stroke-width="1.5"></path><path d="M412.16 558.57L513.38 673.52" stroke="hsl(228.5, 77.2%, 51.5%)" stroke-width="1.5"></path><path d="M412.16 558.57L358.82 710.98" stroke="hsl(228.5, 77.2%, 51.5%)" stroke-width="1.5"></path><path d="M412.16 558.57L201.88 645.62" stroke="hsl(228.5, 77.2%, 51.5%)" stroke-width="1.5"></path><path d="M358.82 710.98L358.82 710.98" stroke="hsl(228.5, 77.2%, 51.5%)" stroke-width="1.5"></path><path d="M358.82 710.98L513.38 673.52" stroke="hsl(228.5, 77.2%, 51.5%)" stroke-width="1.5"></path><path d="M358.82 710.98L201.88 645.62" stroke="hsl(228.5, 77.2%, 51.5%)" stroke-width="1.5"></path><path d="M358.82 710.98L503.89 513.4" stroke="hsl(228.5, 77.2%, 51.5%)" stroke-width="1.5"></path><path d="M358.82 710.98L61.04 647.93" stroke="hsl(228.5, 77.2%, 51.5%)" stroke-width="1.5"></path><path d="M358.82 710.98L671.21 652.74" stroke="hsl(228.5, 77.2%, 51.5%)" stroke-width="1.5"></path><path d="M503.89 513.4L503.89 513.4" stroke="hsl(228.5, 77.2%, 51.5%)" stroke-width="1.5"></path><path d="M503.89 513.4L513.38 673.52" stroke="hsl(228.5, 77.2%, 51.5%)" stroke-width="1.5"></path><path d="M503.89 513.4L678.43 542.91" stroke="hsl(228.5, 77.2%, 51.5%)" stroke-width="1.5"></path><path d="M503.89 513.4L671.21 652.74" stroke="hsl(228.5, 77.2%, 51.5%)" stroke-width="1.5"></path><path d="M513.38 673.52L513.38 673.52" stroke="hsl(228.5, 77.2%, 51.5%)" stroke-width="1.5"></path><path d="M513.38 673.52L671.21 652.74" stroke="hsl(228.5, 77.2%, 51.5%)" stroke-width="1.5"></path><path d="M513.38 673.52L678.43 542.91" stroke="hsl(228.5, 77.2%, 51.5%)" stroke-width="1.5"></path><path d="M678.43 542.91L678.43 542.91" stroke="hsl(228.5, 77.2%, 51.5%)" stroke-width="1.5"></path><path d="M678.43 542.91L671.21 652.74" stroke="hsl(228.5, 77.2%, 51.5%)" stroke-width="1.5"></path><path d="M678.43 542.91L855.29 500.49" stroke="hsl(228.5, 77.2%, 51.5%)" stroke-width="1.5"></path><path d="M678.43 542.91L807.52 703.97" stroke="hsl(228.5, 77.2%, 51.5%)" stroke-width="1.5"></path><path d="M678.43 542.91L412.16 558.57" stroke="hsl(228.5, 77.2%, 51.5%)" stroke-width="1.5"></path><path d="M671.21 652.74L671.21 652.74" stroke="hsl(228.5, 77.2%, 51.5%)" stroke-width="1.5"></path><path d="M855.29 500.49L855.29 500.49" stroke="hsl(228.5, 77.2%, 51.5%)" stroke-width="1.5"></path><path d="M855.29 500.49L1005.51 495.99" stroke="hsl(228.5, 77.2%, 51.5%)" stroke-width="1.5"></path><path d="M855.29 500.49L968.54 339.82" stroke="hsl(228.5, 77.2%, 51.5%)" stroke-width="1.5"></path><path d="M855.29 500.49L807.52 703.97" stroke="hsl(228.5, 77.2%, 51.5%)" stroke-width="1.5"></path><path d="M855.29 500.49L671.21 652.74" stroke="hsl(228.5, 77.2%, 51.5%)" stroke-width="1.5"></path><path d="M807.52 703.97L807.52 703.97" stroke="hsl(228.5, 77.2%, 51.5%)" stroke-width="1.5"></path><path d="M807.52 703.97L671.21 652.74" stroke="hsl(228.5, 77.2%, 51.5%)" stroke-width="1.5"></path><path d="M807.52 703.97L1005.51 495.99" stroke="hsl(228.5, 77.2%, 51.5%)" stroke-width="1.5"></path><path d="M807.52 703.97L1094.61 655.2" stroke="hsl(228.5, 77.2%, 51.5%)" stroke-width="1.5"></path><path d="M807.52 703.97L513.38 673.52" stroke="hsl(228.5, 77.2%, 51.5%)" stroke-width="1.5"></path><path d="M979.27 242.5L979.27 242.5" stroke="hsl(228.5, 77.2%, 51.5%)" stroke-width="1.5"></path><path d="M979.27 242.5L968.54 339.82" stroke="hsl(228.5, 77.2%, 51.5%)" stroke-width="1.5"></path><path d="M979.27 242.5L1118.76 250.5" stroke="hsl(228.5, 77.2%, 51.5%)" stroke-width="1.5"></path><path d="M979.27 242.5L1088.52 403.41" stroke="hsl(228.5, 77.2%, 51.5%)" stroke-width="1.5"></path><path d="M979.27 242.5L1150.31 95.29" stroke="hsl(228.5, 77.2%, 51.5%)" stroke-width="1.5"></path><path d="M979.27 242.5L1005.51 495.99" stroke="hsl(228.5, 77.2%, 51.5%)" stroke-width="1.5"></path><path d="M968.54 339.82L968.54 339.82" stroke="hsl(228.5, 77.2%, 51.5%)" stroke-width="1.5"></path><path d="M968.54 339.82L1088.52 403.41" stroke="hsl(228.5, 77.2%, 51.5%)" stroke-width="1.5"></path><path d="M968.54 339.82L1005.51 495.99" stroke="hsl(228.5, 77.2%, 51.5%)" stroke-width="1.5"></path><path d="M968.54 339.82L1118.76 250.5" stroke="hsl(228.5, 77.2%, 51.5%)" stroke-width="1.5"></path><path d="M1005.51 495.99L1005.51 495.99" stroke="hsl(228.5, 77.2%, 51.5%)" stroke-width="1.5"></path><path d="M1005.51 495.99L1116.01 502.59" stroke="hsl(228.5, 77.2%, 51.5%)" stroke-width="1.5"></path><path d="M1005.51 495.99L1088.52 403.41" stroke="hsl(228.5, 77.2%, 51.5%)" stroke-width="1.5"></path><path d="M1005.51 495.99L1094.61 655.2" stroke="hsl(228.5, 77.2%, 51.5%)" stroke-width="1.5"></path><path d="M1150.31 95.29L1150.31 95.29" stroke="hsl(228.5, 77.2%, 51.5%)" stroke-width="1.5"></path><path d="M1150.31 95.29L1118.76 250.5" stroke="hsl(228.5, 77.2%, 51.5%)" stroke-width="1.5"></path><path d="M1118.76 250.5L1118.76 250.5" stroke="hsl(228.5, 77.2%, 51.5%)" stroke-width="1.5"></path><path d="M1118.76 250.5L1088.52 403.41" stroke="hsl(228.5, 77.2%, 51.5%)" stroke-width="1.5"></path><path d="M1088.52 403.41L1088.52 403.41" stroke="hsl(228.5, 77.2%, 51.5%)" stroke-width="1.5"></path><path d="M1088.52 403.41L1116.01 502.59" stroke="hsl(228.5, 77.2%, 51.5%)" stroke-width="1.5"></path><path d="M1116.01 502.59L1116.01 502.59" stroke="hsl(228.5, 77.2%, 51.5%)" stroke-width="1.5"></path><path d="M1094.61 655.2L1094.61 655.2" stroke="hsl(228.5, 77.2%, 51.5%)" stroke-width="1.5"></path><path d="M1094.61 655.2L1116.01 502.59" stroke="hsl(228.5, 77.2%, 51.5%)" stroke-width="1.5"></path><path d="M1094.61 655.2L1245.74 696.54" stroke="hsl(228.5, 77.2%, 51.5%)" stroke-width="1.5"></path><path d="M1094.61 655.2L1266.17 524.35" stroke="hsl(228.5, 77.2%, 51.5%)" stroke-width="1.5"></path><path d="M1292.46 -94.28L1292.46 -94.28" stroke="hsl(228.5, 77.2%, 51.5%)" stroke-width="1.5"></path><path d="M1292.46 -94.28L1395.82 100.59" stroke="hsl(228.5, 77.2%, 51.5%)" stroke-width="1.5"></path><path d="M1292.46 -94.28L1150.31 95.29" stroke="hsl(228.5, 77.2%, 51.5%)" stroke-width="1.5"></path><path d="M1292.46 -94.28L1588.65 -56.28" stroke="hsl(228.5, 77.2%, 51.5%)" stroke-width="1.5"></path><path d="M1292.46 -94.28L1290.31 249.96" stroke="hsl(228.5, 77.2%, 51.5%)" stroke-width="1.5"></path><path d="M1283.89 368.14L1283.89 368.14" stroke="hsl(228.5, 77.2%, 51.5%)" stroke-width="1.5"></path><path d="M1283.89 368.14L1394.21 259.6" stroke="hsl(228.5, 77.2%, 51.5%)" stroke-width="1.5"></path><path d="M1266.17 524.35L1266.17 524.35" stroke="hsl(228.5, 77.2%, 51.5%)" stroke-width="1.5"></path><path d="M1266.17 524.35L1116.01 502.59" stroke="hsl(228.5, 77.2%, 51.5%)" stroke-width="1.5"></path><path d="M1266.17 524.35L1283.89 368.14" stroke="hsl(228.5, 77.2%, 51.5%)" stroke-width="1.5"></path><path d="M1266.17 524.35L1425.2 539.07" stroke="hsl(228.5, 77.2%, 51.5%)" stroke-width="1.5"></path><path d="M1266.17 524.35L1245.74 696.54" stroke="hsl(228.5, 77.2%, 51.5%)" stroke-width="1.5"></path><path d="M1266.17 524.35L1389.76 392.8" stroke="hsl(228.5, 77.2%, 51.5%)" stroke-width="1.5"></path><path d="M1266.17 524.35L1427.9 648.42" stroke="hsl(228.5, 77.2%, 51.5%)" stroke-width="1.5"></path><path d="M1245.74 696.54L1245.74 696.54" stroke="hsl(228.5, 77.2%, 51.5%)" stroke-width="1.5"></path><path d="M1245.74 696.54L1427.9 648.42" stroke="hsl(228.5, 77.2%, 51.5%)" stroke-width="1.5"></path><path d="M1245.74 696.54L1116.01 502.59" stroke="hsl(228.5, 77.2%, 51.5%)" stroke-width="1.5"></path><path d="M1245.74 696.54L1425.2 539.07" stroke="hsl(228.5, 77.2%, 51.5%)" stroke-width="1.5"></path><path d="M1245.74 696.54L1005.51 495.99" stroke="hsl(228.5, 77.2%, 51.5%)" stroke-width="1.5"></path><path d="M1395.82 100.59L1395.82 100.59" stroke="hsl(228.5, 77.2%, 51.5%)" stroke-width="1.5"></path><path d="M1395.82 100.59L1394.21 259.6" stroke="hsl(228.5, 77.2%, 51.5%)" stroke-width="1.5"></path><path d="M1394.21 259.6L1394.21 259.6" stroke="hsl(228.5, 77.2%, 51.5%)" stroke-width="1.5"></path><path d="M1394.21 259.6L1389.76 392.8" stroke="hsl(228.5, 77.2%, 51.5%)" stroke-width="1.5"></path><path d="M1394.21 259.6L1578.53 220.19" stroke="hsl(228.5, 77.2%, 51.5%)" stroke-width="1.5"></path><path d="M1425.2 539.07L1425.2 539.07" stroke="hsl(228.5, 77.2%, 51.5%)" stroke-width="1.5"></path><path d="M1425.2 539.07L1427.9 648.42" stroke="hsl(228.5, 77.2%, 51.5%)" stroke-width="1.5"></path><path d="M1425.2 539.07L1389.76 392.8" stroke="hsl(228.5, 77.2%, 51.5%)" stroke-width="1.5"></path><path d="M1425.2 539.07L1582.41 510.87" stroke="hsl(228.5, 77.2%, 51.5%)" stroke-width="1.5"></path><path d="M1425.2 539.07L1283.89 368.14" stroke="hsl(228.5, 77.2%, 51.5%)" stroke-width="1.5"></path><path d="M1425.2 539.07L1580.33 703.52" stroke="hsl(228.5, 77.2%, 51.5%)" stroke-width="1.5"></path><path d="M1427.9 648.42L1427.9 648.42" stroke="hsl(228.5, 77.2%, 51.5%)" stroke-width="1.5"></path><path d="M1427.9 648.42L1580.33 703.52" stroke="hsl(228.5, 77.2%, 51.5%)" stroke-width="1.5"></path><path d="M1588.65 -56.28L1588.65 -56.28" stroke="hsl(228.5, 77.2%, 51.5%)" stroke-width="1.5"></path><path d="M1588.65 -56.28L1395.82 100.59" stroke="hsl(228.5, 77.2%, 51.5%)" stroke-width="1.5"></path><path d="M1588.65 -56.28L1578.53 220.19" stroke="hsl(228.5, 77.2%, 51.5%)" stroke-width="1.5"></path><path d="M1578.53 220.19L1578.53 220.19" stroke="hsl(228.5, 77.2%, 51.5%)" stroke-width="1.5"></path><path d="M1578.53 220.19L1608.44 345.71" stroke="hsl(228.5, 77.2%, 51.5%)" stroke-width="1.5"></path><path d="M1578.53 220.19L1395.82 100.59" stroke="hsl(228.5, 77.2%, 51.5%)" stroke-width="1.5"></path><path d="M1578.53 220.19L1389.76 392.8" stroke="hsl(228.5, 77.2%, 51.5%)" stroke-width="1.5"></path><path d="M1608.44 345.71L1608.44 345.71" stroke="hsl(228.5, 77.2%, 51.5%)" stroke-width="1.5"></path><path d="M1608.44 345.71L1582.41 510.87" stroke="hsl(228.5, 77.2%, 51.5%)" stroke-width="1.5"></path><path d="M1608.44 345.71L1389.76 392.8" stroke="hsl(228.5, 77.2%, 51.5%)" stroke-width="1.5"></path><path d="M1608.44 345.71L1394.21 259.6" stroke="hsl(228.5, 77.2%, 51.5%)" stroke-width="1.5"></path><path d="M1608.44 345.71L1425.2 539.07" stroke="hsl(228.5, 77.2%, 51.5%)" stroke-width="1.5"></path><path d="M1582.41 510.87L1582.41 510.87" stroke="hsl(228.5, 77.2%, 51.5%)" stroke-width="1.5"></path><path d="M1582.41 510.87L1580.33 703.52" stroke="hsl(228.5, 77.2%, 51.5%)" stroke-width="1.5"></path><path d="M1582.41 510.87L1427.9 648.42" stroke="hsl(228.5, 77.2%, 51.5%)" stroke-width="1.5"></path><path d="M1582.41 510.87L1389.76 392.8" stroke="hsl(228.5, 77.2%, 51.5%)" stroke-width="1.5"></path><path d="M1580.33 703.52L1580.33 703.52" stroke="hsl(228.5, 77.2%, 51.5%)" stroke-width="1.5"></path><circle r="25" cx="1290.31" cy="249.96" fill="url(&quot;#SvgjsRadialGradient1011&quot;)"></circle><circle r="25" cx="1389.76" cy="392.8" fill="url(&quot;#SvgjsRadialGradient1011&quot;)"></circle><circle r="25" cx="1606.2" cy="58" fill="url(&quot;#SvgjsRadialGradient1011&quot;)"></circle><circle r="5" cx="-74.04" cy="537.03" fill="#8b9ad9"></circle><circle r="5" cx="-70.94" cy="680.76" fill="#8b9ad9"></circle><circle r="5" cx="39.23" cy="513.67" fill="#8b9ad9"></circle><circle r="5" cx="61.04" cy="647.93" fill="#8b9ad9"></circle><circle r="5" cx="201.88" cy="645.62" fill="#8b9ad9"></circle><circle r="5" cx="412.16" cy="558.57" fill="#8b9ad9"></circle><circle r="5" cx="358.82" cy="710.98" fill="#8b9ad9"></circle><circle r="5" cx="503.89" cy="513.4" fill="#8b9ad9"></circle><circle r="5" cx="513.38" cy="673.52" fill="#8b9ad9"></circle><circle r="5" cx="678.43" cy="542.91" fill="#8b9ad9"></circle><circle r="5" cx="671.21" cy="652.74" fill="#8b9ad9"></circle><circle r="5" cx="855.29" cy="500.49" fill="#8b9ad9"></circle><circle r="5" cx="807.52" cy="703.97" fill="#8b9ad9"></circle><circle r="5" cx="979.27" cy="242.5" fill="#8b9ad9"></circle><circle r="5" cx="968.54" cy="339.82" fill="#8b9ad9"></circle><circle r="5" cx="1005.51" cy="495.99" fill="#8b9ad9"></circle><circle r="5" cx="1150.31" cy="95.29" fill="#8b9ad9"></circle><circle r="5" cx="1118.76" cy="250.5" fill="#8b9ad9"></circle><circle r="5" cx="1088.52" cy="403.41" fill="#8b9ad9"></circle><circle r="5" cx="1116.01" cy="502.59" fill="#8b9ad9"></circle><circle r="5" cx="1094.61" cy="655.2" fill="#8b9ad9"></circle><circle r="5" cx="1292.46" cy="-94.28" fill="#8b9ad9"></circle><circle r="5" cx="1283.89" cy="368.14" fill="#8b9ad9"></circle><circle r="5" cx="1266.17" cy="524.35" fill="#8b9ad9"></circle><circle r="5" cx="1245.74" cy="696.54" fill="#8b9ad9"></circle><circle r="5" cx="1395.82" cy="100.59" fill="#8b9ad9"></circle><circle r="5" cx="1394.21" cy="259.6" fill="#8b9ad9"></circle><circle r="5" cx="1425.2" cy="539.07" fill="#8b9ad9"></circle><circle r="5" cx="1427.9" cy="648.42" fill="#8b9ad9"></circle><circle r="5" cx="1588.65" cy="-56.28" fill="#8b9ad9"></circle><circle r="5" cx="1578.53" cy="220.19" fill="#8b9ad9"></circle><circle r="5" cx="1608.44" cy="345.71" fill="#8b9ad9"></circle><circle r="5" cx="1582.41" cy="510.87" fill="#8b9ad9"></circle><circle r="5" cx="1580.33" cy="703.52" fill="#8b9ad9"></circle></g><defs><mask id="SvgjsMask1010"><rect width="1440" height="560" fill="#ffffff"></rect></mask><radialGradient id="SvgjsRadialGradient1011"><stop stop-color="#ffffff" offset="0.1"></stop><stop stop-color="#1735b3" offset="0.2"></stop><stop stop-color="rgba(23, 53, 179, 0)" offset="1"></stop></radialGradient></defs></svg>