<svg xmlns="http://www.w3.org/2000/svg" version="1.1" xmlns:xlink="http://www.w3.org/1999/xlink" xmlns:svgjs="http://svgjs.dev/svgjs" width="1440" height="560" preserveAspectRatio="none" viewBox="0 0 1440 560"><g mask="url(&quot;#SvgjsMask1000&quot;)" fill="none"><rect width="1440" height="560" x="0" y="0" fill="#0e2a47"></rect><path d="M101.04 93.04L166 130.54L166 205.54L101.04 243.04L36.09 205.54L36.09 130.54zM101.04 318.04L166 355.54L166 430.54L101.04 468.04L36.09 430.54L36.09 355.54zM36.09 430.54L101.04 468.04L101.04 543.04L36.09 580.54L-28.86 543.04L-28.86 468.04zM230.95 93.04L295.9 130.54L295.9 205.54L230.95 243.04L166 205.54L166 130.54zM230.95 543.04L295.9 580.54L295.9 655.54L230.95 693.04L166 655.54L166 580.54zM295.9 -19.46L360.86 18.04L360.86 93.04L295.9 130.54L230.95 93.04L230.95 18.04zM360.86 318.04L425.81 355.54L425.81 430.54L360.86 468.04L295.9 430.54L295.9 355.54zM360.86 543.04L425.81 580.54L425.81 655.54L360.86 693.04L295.9 655.54L295.9 580.54zM425.81 -19.46L490.77 18.04L490.77 93.04L425.81 130.54L360.86 93.04L360.86 18.04zM490.77 543.04L555.72 580.54L555.72 655.54L490.77 693.04L425.81 655.54L425.81 580.54zM620.67 93.04L685.63 130.54L685.63 205.54L620.67 243.04L555.72 205.54L555.72 130.54zM555.72 205.54L620.67 243.04L620.67 318.04L555.72 355.54L490.77 318.04L490.77 243.04zM555.72 430.54L620.67 468.04L620.67 543.04L555.72 580.54L490.77 543.04L490.77 468.04zM685.63 205.54L750.58 243.04L750.58 318.04L685.63 355.54L620.67 318.04L620.67 243.04zM685.63 430.54L750.58 468.04L750.58 543.04L685.63 580.54L620.67 543.04L620.67 468.04zM750.58 543.04L815.54 580.54L815.54 655.54L750.58 693.04L685.63 655.54L685.63 580.54zM815.53 -19.46L880.49 18.04L880.49 93.04L815.53 130.54L750.58 93.04L750.58 18.04zM945.44 205.54L1010.4 243.04L1010.4 318.04L945.44 355.54L880.49 318.04L880.49 243.04zM1010.4 318.04L1075.35 355.54L1075.35 430.54L1010.4 468.04L945.44 430.54L945.44 355.54zM945.44 430.54L1010.4 468.04L1010.4 543.04L945.44 580.54L880.49 543.04L880.49 468.04zM1075.35 -19.46L1140.3 18.04L1140.3 93.04L1075.35 130.54L1010.4 93.04L1010.4 18.04zM1140.3 543.04L1205.26 580.54L1205.26 655.54L1140.3 693.04L1075.35 655.54L1075.35 580.54zM1270.21 93.04L1335.16 130.54L1335.16 205.54L1270.21 243.04L1205.26 205.54L1205.26 130.54zM1400.12 93.04L1465.07 130.54L1465.07 205.54L1400.12 243.04L1335.16 205.54L1335.16 130.54zM1530.03 93.04L1594.98 130.54L1594.98 205.54L1530.03 243.04L1465.07 205.54L1465.07 130.54zM1530.03 318.04L1594.98 355.54L1594.98 430.54L1530.03 468.04L1465.07 430.54L1465.07 355.54zM1465.07 430.54L1530.03 468.04L1530.03 543.04L1465.07 580.54L1400.12 543.04L1400.12 468.04zM1530.03 543.04L1594.98 580.54L1594.98 655.54L1530.03 693.04L1465.07 655.54L1465.07 580.54z" stroke="#03305d" stroke-width="2"></path><path d="M93.54 93.04 a7.5 7.5 0 1 0 15 0 a7.5 7.5 0 1 0 -15 0zM158.5 130.54 a7.5 7.5 0 1 0 15 0 a7.5 7.5 0 1 0 -15 0zM158.5 205.54 a7.5 7.5 0 1 0 15 0 a7.5 7.5 0 1 0 -15 0zM93.54 243.04 a7.5 7.5 0 1 0 15 0 a7.5 7.5 0 1 0 -15 0zM28.59 205.54 a7.5 7.5 0 1 0 15 0 a7.5 7.5 0 1 0 -15 0zM28.59 130.54 a7.5 7.5 0 1 0 15 0 a7.5 7.5 0 1 0 -15 0zM93.54 318.04 a7.5 7.5 0 1 0 15 0 a7.5 7.5 0 1 0 -15 0zM158.5 355.54 a7.5 7.5 0 1 0 15 0 a7.5 7.5 0 1 0 -15 0zM158.5 430.54 a7.5 7.5 0 1 0 15 0 a7.5 7.5 0 1 0 -15 0zM93.54 468.04 a7.5 7.5 0 1 0 15 0 a7.5 7.5 0 1 0 -15 0zM28.59 430.54 a7.5 7.5 0 1 0 15 0 a7.5 7.5 0 1 0 -15 0zM28.59 355.54 a7.5 7.5 0 1 0 15 0 a7.5 7.5 0 1 0 -15 0zM93.54 543.04 a7.5 7.5 0 1 0 15 0 a7.5 7.5 0 1 0 -15 0zM28.59 580.54 a7.5 7.5 0 1 0 15 0 a7.5 7.5 0 1 0 -15 0zM-36.36 543.04 a7.5 7.5 0 1 0 15 0 a7.5 7.5 0 1 0 -15 0zM-36.36 468.04 a7.5 7.5 0 1 0 15 0 a7.5 7.5 0 1 0 -15 0zM223.45 93.04 a7.5 7.5 0 1 0 15 0 a7.5 7.5 0 1 0 -15 0zM288.4 130.54 a7.5 7.5 0 1 0 15 0 a7.5 7.5 0 1 0 -15 0zM288.4 205.54 a7.5 7.5 0 1 0 15 0 a7.5 7.5 0 1 0 -15 0zM223.45 243.04 a7.5 7.5 0 1 0 15 0 a7.5 7.5 0 1 0 -15 0zM223.45 543.04 a7.5 7.5 0 1 0 15 0 a7.5 7.5 0 1 0 -15 0zM288.4 580.54 a7.5 7.5 0 1 0 15 0 a7.5 7.5 0 1 0 -15 0zM288.4 655.54 a7.5 7.5 0 1 0 15 0 a7.5 7.5 0 1 0 -15 0zM223.45 693.04 a7.5 7.5 0 1 0 15 0 a7.5 7.5 0 1 0 -15 0zM158.5 655.54 a7.5 7.5 0 1 0 15 0 a7.5 7.5 0 1 0 -15 0zM158.5 580.54 a7.5 7.5 0 1 0 15 0 a7.5 7.5 0 1 0 -15 0zM288.4 -19.46 a7.5 7.5 0 1 0 15 0 a7.5 7.5 0 1 0 -15 0zM353.36 18.04 a7.5 7.5 0 1 0 15 0 a7.5 7.5 0 1 0 -15 0zM353.36 93.04 a7.5 7.5 0 1 0 15 0 a7.5 7.5 0 1 0 -15 0zM223.45 18.04 a7.5 7.5 0 1 0 15 0 a7.5 7.5 0 1 0 -15 0zM353.36 318.04 a7.5 7.5 0 1 0 15 0 a7.5 7.5 0 1 0 -15 0zM418.31 355.54 a7.5 7.5 0 1 0 15 0 a7.5 7.5 0 1 0 -15 0zM418.31 430.54 a7.5 7.5 0 1 0 15 0 a7.5 7.5 0 1 0 -15 0zM353.36 468.04 a7.5 7.5 0 1 0 15 0 a7.5 7.5 0 1 0 -15 0zM288.4 430.54 a7.5 7.5 0 1 0 15 0 a7.5 7.5 0 1 0 -15 0zM288.4 355.54 a7.5 7.5 0 1 0 15 0 a7.5 7.5 0 1 0 -15 0zM353.36 543.04 a7.5 7.5 0 1 0 15 0 a7.5 7.5 0 1 0 -15 0zM418.31 580.54 a7.5 7.5 0 1 0 15 0 a7.5 7.5 0 1 0 -15 0zM418.31 655.54 a7.5 7.5 0 1 0 15 0 a7.5 7.5 0 1 0 -15 0zM353.36 693.04 a7.5 7.5 0 1 0 15 0 a7.5 7.5 0 1 0 -15 0zM418.31 -19.46 a7.5 7.5 0 1 0 15 0 a7.5 7.5 0 1 0 -15 0zM483.27 18.04 a7.5 7.5 0 1 0 15 0 a7.5 7.5 0 1 0 -15 0zM483.27 93.04 a7.5 7.5 0 1 0 15 0 a7.5 7.5 0 1 0 -15 0zM418.31 130.54 a7.5 7.5 0 1 0 15 0 a7.5 7.5 0 1 0 -15 0zM483.27 543.04 a7.5 7.5 0 1 0 15 0 a7.5 7.5 0 1 0 -15 0zM548.22 580.54 a7.5 7.5 0 1 0 15 0 a7.5 7.5 0 1 0 -15 0zM548.22 655.54 a7.5 7.5 0 1 0 15 0 a7.5 7.5 0 1 0 -15 0zM483.27 693.04 a7.5 7.5 0 1 0 15 0 a7.5 7.5 0 1 0 -15 0zM613.17 93.04 a7.5 7.5 0 1 0 15 0 a7.5 7.5 0 1 0 -15 0zM678.13 130.54 a7.5 7.5 0 1 0 15 0 a7.5 7.5 0 1 0 -15 0zM678.13 205.54 a7.5 7.5 0 1 0 15 0 a7.5 7.5 0 1 0 -15 0zM613.17 243.04 a7.5 7.5 0 1 0 15 0 a7.5 7.5 0 1 0 -15 0zM548.22 205.54 a7.5 7.5 0 1 0 15 0 a7.5 7.5 0 1 0 -15 0zM548.22 130.54 a7.5 7.5 0 1 0 15 0 a7.5 7.5 0 1 0 -15 0zM613.17 318.04 a7.5 7.5 0 1 0 15 0 a7.5 7.5 0 1 0 -15 0zM548.22 355.54 a7.5 7.5 0 1 0 15 0 a7.5 7.5 0 1 0 -15 0zM483.27 318.04 a7.5 7.5 0 1 0 15 0 a7.5 7.5 0 1 0 -15 0zM483.27 243.04 a7.5 7.5 0 1 0 15 0 a7.5 7.5 0 1 0 -15 0zM548.22 430.54 a7.5 7.5 0 1 0 15 0 a7.5 7.5 0 1 0 -15 0zM613.17 468.04 a7.5 7.5 0 1 0 15 0 a7.5 7.5 0 1 0 -15 0zM613.17 543.04 a7.5 7.5 0 1 0 15 0 a7.5 7.5 0 1 0 -15 0zM483.27 468.04 a7.5 7.5 0 1 0 15 0 a7.5 7.5 0 1 0 -15 0zM743.08 243.04 a7.5 7.5 0 1 0 15 0 a7.5 7.5 0 1 0 -15 0zM743.08 318.04 a7.5 7.5 0 1 0 15 0 a7.5 7.5 0 1 0 -15 0zM678.13 355.54 a7.5 7.5 0 1 0 15 0 a7.5 7.5 0 1 0 -15 0zM678.13 430.54 a7.5 7.5 0 1 0 15 0 a7.5 7.5 0 1 0 -15 0zM743.08 468.04 a7.5 7.5 0 1 0 15 0 a7.5 7.5 0 1 0 -15 0zM743.08 543.04 a7.5 7.5 0 1 0 15 0 a7.5 7.5 0 1 0 -15 0zM678.13 580.54 a7.5 7.5 0 1 0 15 0 a7.5 7.5 0 1 0 -15 0zM808.04 580.54 a7.5 7.5 0 1 0 15 0 a7.5 7.5 0 1 0 -15 0zM808.04 655.54 a7.5 7.5 0 1 0 15 0 a7.5 7.5 0 1 0 -15 0zM743.08 693.04 a7.5 7.5 0 1 0 15 0 a7.5 7.5 0 1 0 -15 0zM678.13 655.54 a7.5 7.5 0 1 0 15 0 a7.5 7.5 0 1 0 -15 0zM808.03 -19.46 a7.5 7.5 0 1 0 15 0 a7.5 7.5 0 1 0 -15 0zM872.99 18.04 a7.5 7.5 0 1 0 15 0 a7.5 7.5 0 1 0 -15 0zM872.99 93.04 a7.5 7.5 0 1 0 15 0 a7.5 7.5 0 1 0 -15 0zM808.03 130.54 a7.5 7.5 0 1 0 15 0 a7.5 7.5 0 1 0 -15 0zM743.08 93.04 a7.5 7.5 0 1 0 15 0 a7.5 7.5 0 1 0 -15 0zM743.08 18.04 a7.5 7.5 0 1 0 15 0 a7.5 7.5 0 1 0 -15 0zM937.94 205.54 a7.5 7.5 0 1 0 15 0 a7.5 7.5 0 1 0 -15 0zM1002.9 243.04 a7.5 7.5 0 1 0 15 0 a7.5 7.5 0 1 0 -15 0zM1002.9 318.04 a7.5 7.5 0 1 0 15 0 a7.5 7.5 0 1 0 -15 0zM937.94 355.54 a7.5 7.5 0 1 0 15 0 a7.5 7.5 0 1 0 -15 0zM872.99 318.04 a7.5 7.5 0 1 0 15 0 a7.5 7.5 0 1 0 -15 0zM872.99 243.04 a7.5 7.5 0 1 0 15 0 a7.5 7.5 0 1 0 -15 0zM1067.85 355.54 a7.5 7.5 0 1 0 15 0 a7.5 7.5 0 1 0 -15 0zM1067.85 430.54 a7.5 7.5 0 1 0 15 0 a7.5 7.5 0 1 0 -15 0zM1002.9 468.04 a7.5 7.5 0 1 0 15 0 a7.5 7.5 0 1 0 -15 0zM937.94 430.54 a7.5 7.5 0 1 0 15 0 a7.5 7.5 0 1 0 -15 0zM1002.9 543.04 a7.5 7.5 0 1 0 15 0 a7.5 7.5 0 1 0 -15 0zM937.94 580.54 a7.5 7.5 0 1 0 15 0 a7.5 7.5 0 1 0 -15 0zM872.99 543.04 a7.5 7.5 0 1 0 15 0 a7.5 7.5 0 1 0 -15 0zM872.99 468.04 a7.5 7.5 0 1 0 15 0 a7.5 7.5 0 1 0 -15 0zM1067.85 -19.46 a7.5 7.5 0 1 0 15 0 a7.5 7.5 0 1 0 -15 0zM1132.8 18.04 a7.5 7.5 0 1 0 15 0 a7.5 7.5 0 1 0 -15 0zM1132.8 93.04 a7.5 7.5 0 1 0 15 0 a7.5 7.5 0 1 0 -15 0zM1067.85 130.54 a7.5 7.5 0 1 0 15 0 a7.5 7.5 0 1 0 -15 0zM1002.9 93.04 a7.5 7.5 0 1 0 15 0 a7.5 7.5 0 1 0 -15 0zM1002.9 18.04 a7.5 7.5 0 1 0 15 0 a7.5 7.5 0 1 0 -15 0zM1132.8 543.04 a7.5 7.5 0 1 0 15 0 a7.5 7.5 0 1 0 -15 0zM1197.76 580.54 a7.5 7.5 0 1 0 15 0 a7.5 7.5 0 1 0 -15 0zM1197.76 655.54 a7.5 7.5 0 1 0 15 0 a7.5 7.5 0 1 0 -15 0zM1132.8 693.04 a7.5 7.5 0 1 0 15 0 a7.5 7.5 0 1 0 -15 0zM1067.85 655.54 a7.5 7.5 0 1 0 15 0 a7.5 7.5 0 1 0 -15 0zM1067.85 580.54 a7.5 7.5 0 1 0 15 0 a7.5 7.5 0 1 0 -15 0zM1262.71 93.04 a7.5 7.5 0 1 0 15 0 a7.5 7.5 0 1 0 -15 0zM1327.66 130.54 a7.5 7.5 0 1 0 15 0 a7.5 7.5 0 1 0 -15 0zM1327.66 205.54 a7.5 7.5 0 1 0 15 0 a7.5 7.5 0 1 0 -15 0zM1262.71 243.04 a7.5 7.5 0 1 0 15 0 a7.5 7.5 0 1 0 -15 0zM1197.76 205.54 a7.5 7.5 0 1 0 15 0 a7.5 7.5 0 1 0 -15 0zM1197.76 130.54 a7.5 7.5 0 1 0 15 0 a7.5 7.5 0 1 0 -15 0zM1392.62 93.04 a7.5 7.5 0 1 0 15 0 a7.5 7.5 0 1 0 -15 0zM1457.57 130.54 a7.5 7.5 0 1 0 15 0 a7.5 7.5 0 1 0 -15 0zM1457.57 205.54 a7.5 7.5 0 1 0 15 0 a7.5 7.5 0 1 0 -15 0zM1392.62 243.04 a7.5 7.5 0 1 0 15 0 a7.5 7.5 0 1 0 -15 0zM1522.53 93.04 a7.5 7.5 0 1 0 15 0 a7.5 7.5 0 1 0 -15 0zM1587.48 130.54 a7.5 7.5 0 1 0 15 0 a7.5 7.5 0 1 0 -15 0zM1587.48 205.54 a7.5 7.5 0 1 0 15 0 a7.5 7.5 0 1 0 -15 0zM1522.53 243.04 a7.5 7.5 0 1 0 15 0 a7.5 7.5 0 1 0 -15 0zM1522.53 318.04 a7.5 7.5 0 1 0 15 0 a7.5 7.5 0 1 0 -15 0zM1587.48 355.54 a7.5 7.5 0 1 0 15 0 a7.5 7.5 0 1 0 -15 0zM1587.48 430.54 a7.5 7.5 0 1 0 15 0 a7.5 7.5 0 1 0 -15 0zM1522.53 468.04 a7.5 7.5 0 1 0 15 0 a7.5 7.5 0 1 0 -15 0zM1457.57 430.54 a7.5 7.5 0 1 0 15 0 a7.5 7.5 0 1 0 -15 0zM1457.57 355.54 a7.5 7.5 0 1 0 15 0 a7.5 7.5 0 1 0 -15 0zM1522.53 543.04 a7.5 7.5 0 1 0 15 0 a7.5 7.5 0 1 0 -15 0zM1457.57 580.54 a7.5 7.5 0 1 0 15 0 a7.5 7.5 0 1 0 -15 0zM1392.62 543.04 a7.5 7.5 0 1 0 15 0 a7.5 7.5 0 1 0 -15 0zM1392.62 468.04 a7.5 7.5 0 1 0 15 0 a7.5 7.5 0 1 0 -15 0zM1587.48 580.54 a7.5 7.5 0 1 0 15 0 a7.5 7.5 0 1 0 -15 0zM1587.48 655.54 a7.5 7.5 0 1 0 15 0 a7.5 7.5 0 1 0 -15 0zM1522.53 693.04 a7.5 7.5 0 1 0 15 0 a7.5 7.5 0 1 0 -15 0zM1457.57 655.54 a7.5 7.5 0 1 0 15 0 a7.5 7.5 0 1 0 -15 0z" fill="#03305d"></path><path d="M37.73 -4.5L81.03 20.5L81.03 70.5L37.73 95.5L-5.57 70.5L-5.57 20.5zM81.03 70.5L124.34 95.5L124.34 145.5L81.03 170.5L37.73 145.5L37.73 95.5zM37.73 295.5L81.03 320.5L81.03 370.5L37.73 395.5L-5.57 370.5L-5.57 320.5zM81.03 520.5L124.34 545.5L124.34 595.5L81.03 620.5L37.73 595.5L37.73 545.5zM167.64 70.5L210.94 95.5L210.94 145.5L167.64 170.5L124.34 145.5L124.34 95.5zM124.34 295.5L167.64 320.5L167.64 370.5L124.34 395.5L81.03 370.5L81.03 320.5zM167.64 370.5L210.94 395.5L210.94 445.5L167.64 470.5L124.34 445.5L124.34 395.5zM210.94 -4.5L254.24 20.5L254.24 70.5L210.94 95.5L167.64 70.5L167.64 20.5zM254.24 520.5L297.55 545.5L297.55 595.5L254.24 620.5L210.94 595.5L210.94 545.5zM297.55 -4.5L340.85 20.5L340.85 70.5L297.55 95.5L254.24 70.5L254.24 20.5zM340.85 220.5L384.15 245.5L384.15 295.5L340.85 320.5L297.55 295.5L297.55 245.5zM340.85 520.5L384.15 545.5L384.15 595.5L340.85 620.5L297.55 595.5L297.55 545.5zM384.15 -4.5L427.45 20.5L427.45 70.5L384.15 95.5L340.85 70.5L340.85 20.5zM384.15 145.5L427.45 170.5L427.45 220.5L384.15 245.5L340.85 220.5L340.85 170.5zM384.15 295.5L427.45 320.5L427.45 370.5L384.15 395.5L340.85 370.5L340.85 320.5zM470.76 145.5L514.06 170.5L514.06 220.5L470.76 245.5L427.45 220.5L427.45 170.5zM557.36 145.5L600.66 170.5L600.66 220.5L557.36 245.5L514.06 220.5L514.06 170.5zM557.36 295.5L600.66 320.5L600.66 370.5L557.36 395.5L514.06 370.5L514.06 320.5zM600.66 370.5L643.97 395.5L643.97 445.5L600.66 470.5L557.36 445.5L557.36 395.5zM687.27 370.5L730.57 395.5L730.57 445.5L687.27 470.5L643.97 445.5L643.97 395.5zM773.87 220.5L817.18 245.5L817.18 295.5L773.87 320.5L730.57 295.5L730.57 245.5zM730.57 295.5L773.87 320.5L773.87 370.5L730.57 395.5L687.27 370.5L687.27 320.5zM773.87 520.5L817.18 545.5L817.18 595.5L773.87 620.5L730.57 595.5L730.57 545.5zM860.48 70.5L903.78 95.5L903.78 145.5L860.48 170.5L817.18 145.5L817.18 95.5zM860.48 370.5L903.78 395.5L903.78 445.5L860.48 470.5L817.18 445.5L817.18 395.5zM903.78 -4.5L947.08 20.5L947.08 70.5L903.78 95.5L860.48 70.5L860.48 20.5zM903.78 295.5L947.08 320.5L947.08 370.5L903.78 395.5L860.48 370.5L860.48 320.5zM990.39 -4.5L1033.69 20.5L1033.69 70.5L990.39 95.5L947.08 70.5L947.08 20.5zM1033.69 220.5L1076.99 245.5L1076.99 295.5L1033.69 320.5L990.39 295.5L990.39 245.5zM1076.99 -4.5L1120.29 20.5L1120.29 70.5L1076.99 95.5L1033.69 70.5L1033.69 20.5zM1076.99 295.5L1120.29 320.5L1120.29 370.5L1076.99 395.5L1033.69 370.5L1033.69 320.5zM1120.29 370.5L1163.6 395.5L1163.6 445.5L1120.29 470.5L1076.99 445.5L1076.99 395.5zM1206.9 70.5L1250.2 95.5L1250.2 145.5L1206.9 170.5L1163.6 145.5L1163.6 95.5zM1293.5 70.5L1336.81 95.5L1336.81 145.5L1293.5 170.5L1250.2 145.5L1250.2 95.5zM1293.5 370.5L1336.81 395.5L1336.81 445.5L1293.5 470.5L1250.2 445.5L1250.2 395.5zM1293.5 520.5L1336.81 545.5L1336.81 595.5L1293.5 620.5L1250.2 595.5L1250.2 545.5zM1380.11 220.5L1423.41 245.5L1423.41 295.5L1380.11 320.5L1336.81 295.5L1336.81 245.5zM1336.81 445.5L1380.11 470.5L1380.11 520.5L1336.81 545.5L1293.5 520.5L1293.5 470.5zM1380.11 520.5L1423.41 545.5L1423.41 595.5L1380.11 620.5L1336.81 595.5L1336.81 545.5zM1466.71 520.5L1510.02 545.5L1510.02 595.5L1466.71 620.5L1423.41 595.5L1423.41 545.5z" stroke="rgba(6, 80, 156, 0.93)" stroke-width="2"></path><path d="M32.73 -4.5 a5 5 0 1 0 10 0 a5 5 0 1 0 -10 0zM76.03 20.5 a5 5 0 1 0 10 0 a5 5 0 1 0 -10 0zM76.03 70.5 a5 5 0 1 0 10 0 a5 5 0 1 0 -10 0zM32.73 95.5 a5 5 0 1 0 10 0 a5 5 0 1 0 -10 0zM-10.57 70.5 a5 5 0 1 0 10 0 a5 5 0 1 0 -10 0zM-10.57 20.5 a5 5 0 1 0 10 0 a5 5 0 1 0 -10 0zM119.34 95.5 a5 5 0 1 0 10 0 a5 5 0 1 0 -10 0zM119.34 145.5 a5 5 0 1 0 10 0 a5 5 0 1 0 -10 0zM76.03 170.5 a5 5 0 1 0 10 0 a5 5 0 1 0 -10 0zM32.73 145.5 a5 5 0 1 0 10 0 a5 5 0 1 0 -10 0zM32.73 295.5 a5 5 0 1 0 10 0 a5 5 0 1 0 -10 0zM76.03 320.5 a5 5 0 1 0 10 0 a5 5 0 1 0 -10 0zM76.03 370.5 a5 5 0 1 0 10 0 a5 5 0 1 0 -10 0zM32.73 395.5 a5 5 0 1 0 10 0 a5 5 0 1 0 -10 0zM-10.57 370.5 a5 5 0 1 0 10 0 a5 5 0 1 0 -10 0zM-10.57 320.5 a5 5 0 1 0 10 0 a5 5 0 1 0 -10 0zM76.03 520.5 a5 5 0 1 0 10 0 a5 5 0 1 0 -10 0zM119.34 545.5 a5 5 0 1 0 10 0 a5 5 0 1 0 -10 0zM119.34 595.5 a5 5 0 1 0 10 0 a5 5 0 1 0 -10 0zM76.03 620.5 a5 5 0 1 0 10 0 a5 5 0 1 0 -10 0zM32.73 595.5 a5 5 0 1 0 10 0 a5 5 0 1 0 -10 0zM32.73 545.5 a5 5 0 1 0 10 0 a5 5 0 1 0 -10 0zM162.64 70.5 a5 5 0 1 0 10 0 a5 5 0 1 0 -10 0zM205.94 95.5 a5 5 0 1 0 10 0 a5 5 0 1 0 -10 0zM205.94 145.5 a5 5 0 1 0 10 0 a5 5 0 1 0 -10 0zM162.64 170.5 a5 5 0 1 0 10 0 a5 5 0 1 0 -10 0zM119.34 295.5 a5 5 0 1 0 10 0 a5 5 0 1 0 -10 0zM162.64 320.5 a5 5 0 1 0 10 0 a5 5 0 1 0 -10 0zM162.64 370.5 a5 5 0 1 0 10 0 a5 5 0 1 0 -10 0zM119.34 395.5 a5 5 0 1 0 10 0 a5 5 0 1 0 -10 0zM205.94 395.5 a5 5 0 1 0 10 0 a5 5 0 1 0 -10 0zM205.94 445.5 a5 5 0 1 0 10 0 a5 5 0 1 0 -10 0zM162.64 470.5 a5 5 0 1 0 10 0 a5 5 0 1 0 -10 0zM119.34 445.5 a5 5 0 1 0 10 0 a5 5 0 1 0 -10 0zM205.94 -4.5 a5 5 0 1 0 10 0 a5 5 0 1 0 -10 0zM249.24 20.5 a5 5 0 1 0 10 0 a5 5 0 1 0 -10 0zM249.24 70.5 a5 5 0 1 0 10 0 a5 5 0 1 0 -10 0zM162.64 20.5 a5 5 0 1 0 10 0 a5 5 0 1 0 -10 0zM249.24 520.5 a5 5 0 1 0 10 0 a5 5 0 1 0 -10 0zM292.55 545.5 a5 5 0 1 0 10 0 a5 5 0 1 0 -10 0zM292.55 595.5 a5 5 0 1 0 10 0 a5 5 0 1 0 -10 0zM249.24 620.5 a5 5 0 1 0 10 0 a5 5 0 1 0 -10 0zM205.94 595.5 a5 5 0 1 0 10 0 a5 5 0 1 0 -10 0zM205.94 545.5 a5 5 0 1 0 10 0 a5 5 0 1 0 -10 0zM292.55 -4.5 a5 5 0 1 0 10 0 a5 5 0 1 0 -10 0zM335.85 20.5 a5 5 0 1 0 10 0 a5 5 0 1 0 -10 0zM335.85 70.5 a5 5 0 1 0 10 0 a5 5 0 1 0 -10 0zM292.55 95.5 a5 5 0 1 0 10 0 a5 5 0 1 0 -10 0zM335.85 220.5 a5 5 0 1 0 10 0 a5 5 0 1 0 -10 0zM379.15 245.5 a5 5 0 1 0 10 0 a5 5 0 1 0 -10 0zM379.15 295.5 a5 5 0 1 0 10 0 a5 5 0 1 0 -10 0zM335.85 320.5 a5 5 0 1 0 10 0 a5 5 0 1 0 -10 0zM292.55 295.5 a5 5 0 1 0 10 0 a5 5 0 1 0 -10 0zM292.55 245.5 a5 5 0 1 0 10 0 a5 5 0 1 0 -10 0zM335.85 520.5 a5 5 0 1 0 10 0 a5 5 0 1 0 -10 0zM379.15 545.5 a5 5 0 1 0 10 0 a5 5 0 1 0 -10 0zM379.15 595.5 a5 5 0 1 0 10 0 a5 5 0 1 0 -10 0zM335.85 620.5 a5 5 0 1 0 10 0 a5 5 0 1 0 -10 0zM379.15 -4.5 a5 5 0 1 0 10 0 a5 5 0 1 0 -10 0zM422.45 20.5 a5 5 0 1 0 10 0 a5 5 0 1 0 -10 0zM422.45 70.5 a5 5 0 1 0 10 0 a5 5 0 1 0 -10 0zM379.15 95.5 a5 5 0 1 0 10 0 a5 5 0 1 0 -10 0zM379.15 145.5 a5 5 0 1 0 10 0 a5 5 0 1 0 -10 0zM422.45 170.5 a5 5 0 1 0 10 0 a5 5 0 1 0 -10 0zM422.45 220.5 a5 5 0 1 0 10 0 a5 5 0 1 0 -10 0zM335.85 170.5 a5 5 0 1 0 10 0 a5 5 0 1 0 -10 0zM422.45 320.5 a5 5 0 1 0 10 0 a5 5 0 1 0 -10 0zM422.45 370.5 a5 5 0 1 0 10 0 a5 5 0 1 0 -10 0zM379.15 395.5 a5 5 0 1 0 10 0 a5 5 0 1 0 -10 0zM335.85 370.5 a5 5 0 1 0 10 0 a5 5 0 1 0 -10 0zM465.76 145.5 a5 5 0 1 0 10 0 a5 5 0 1 0 -10 0zM509.06 170.5 a5 5 0 1 0 10 0 a5 5 0 1 0 -10 0zM509.06 220.5 a5 5 0 1 0 10 0 a5 5 0 1 0 -10 0zM465.76 245.5 a5 5 0 1 0 10 0 a5 5 0 1 0 -10 0zM552.36 145.5 a5 5 0 1 0 10 0 a5 5 0 1 0 -10 0zM595.66 170.5 a5 5 0 1 0 10 0 a5 5 0 1 0 -10 0zM595.66 220.5 a5 5 0 1 0 10 0 a5 5 0 1 0 -10 0zM552.36 245.5 a5 5 0 1 0 10 0 a5 5 0 1 0 -10 0zM552.36 295.5 a5 5 0 1 0 10 0 a5 5 0 1 0 -10 0zM595.66 320.5 a5 5 0 1 0 10 0 a5 5 0 1 0 -10 0zM595.66 370.5 a5 5 0 1 0 10 0 a5 5 0 1 0 -10 0zM552.36 395.5 a5 5 0 1 0 10 0 a5 5 0 1 0 -10 0zM509.06 370.5 a5 5 0 1 0 10 0 a5 5 0 1 0 -10 0zM509.06 320.5 a5 5 0 1 0 10 0 a5 5 0 1 0 -10 0zM638.97 395.5 a5 5 0 1 0 10 0 a5 5 0 1 0 -10 0zM638.97 445.5 a5 5 0 1 0 10 0 a5 5 0 1 0 -10 0zM595.66 470.5 a5 5 0 1 0 10 0 a5 5 0 1 0 -10 0zM552.36 445.5 a5 5 0 1 0 10 0 a5 5 0 1 0 -10 0zM682.27 370.5 a5 5 0 1 0 10 0 a5 5 0 1 0 -10 0zM725.57 395.5 a5 5 0 1 0 10 0 a5 5 0 1 0 -10 0zM725.57 445.5 a5 5 0 1 0 10 0 a5 5 0 1 0 -10 0zM682.27 470.5 a5 5 0 1 0 10 0 a5 5 0 1 0 -10 0zM768.87 220.5 a5 5 0 1 0 10 0 a5 5 0 1 0 -10 0zM812.18 245.5 a5 5 0 1 0 10 0 a5 5 0 1 0 -10 0zM812.18 295.5 a5 5 0 1 0 10 0 a5 5 0 1 0 -10 0zM768.87 320.5 a5 5 0 1 0 10 0 a5 5 0 1 0 -10 0zM725.57 295.5 a5 5 0 1 0 10 0 a5 5 0 1 0 -10 0zM725.57 245.5 a5 5 0 1 0 10 0 a5 5 0 1 0 -10 0zM768.87 370.5 a5 5 0 1 0 10 0 a5 5 0 1 0 -10 0zM682.27 320.5 a5 5 0 1 0 10 0 a5 5 0 1 0 -10 0zM768.87 520.5 a5 5 0 1 0 10 0 a5 5 0 1 0 -10 0zM812.18 545.5 a5 5 0 1 0 10 0 a5 5 0 1 0 -10 0zM812.18 595.5 a5 5 0 1 0 10 0 a5 5 0 1 0 -10 0zM768.87 620.5 a5 5 0 1 0 10 0 a5 5 0 1 0 -10 0zM725.57 595.5 a5 5 0 1 0 10 0 a5 5 0 1 0 -10 0zM725.57 545.5 a5 5 0 1 0 10 0 a5 5 0 1 0 -10 0zM855.48 70.5 a5 5 0 1 0 10 0 a5 5 0 1 0 -10 0zM898.78 95.5 a5 5 0 1 0 10 0 a5 5 0 1 0 -10 0zM898.78 145.5 a5 5 0 1 0 10 0 a5 5 0 1 0 -10 0zM855.48 170.5 a5 5 0 1 0 10 0 a5 5 0 1 0 -10 0zM812.18 145.5 a5 5 0 1 0 10 0 a5 5 0 1 0 -10 0zM812.18 95.5 a5 5 0 1 0 10 0 a5 5 0 1 0 -10 0zM855.48 370.5 a5 5 0 1 0 10 0 a5 5 0 1 0 -10 0zM898.78 395.5 a5 5 0 1 0 10 0 a5 5 0 1 0 -10 0zM898.78 445.5 a5 5 0 1 0 10 0 a5 5 0 1 0 -10 0zM855.48 470.5 a5 5 0 1 0 10 0 a5 5 0 1 0 -10 0zM812.18 445.5 a5 5 0 1 0 10 0 a5 5 0 1 0 -10 0zM812.18 395.5 a5 5 0 1 0 10 0 a5 5 0 1 0 -10 0zM898.78 -4.5 a5 5 0 1 0 10 0 a5 5 0 1 0 -10 0zM942.08 20.5 a5 5 0 1 0 10 0 a5 5 0 1 0 -10 0zM942.08 70.5 a5 5 0 1 0 10 0 a5 5 0 1 0 -10 0zM855.48 20.5 a5 5 0 1 0 10 0 a5 5 0 1 0 -10 0zM898.78 295.5 a5 5 0 1 0 10 0 a5 5 0 1 0 -10 0zM942.08 320.5 a5 5 0 1 0 10 0 a5 5 0 1 0 -10 0zM942.08 370.5 a5 5 0 1 0 10 0 a5 5 0 1 0 -10 0zM855.48 320.5 a5 5 0 1 0 10 0 a5 5 0 1 0 -10 0zM985.39 -4.5 a5 5 0 1 0 10 0 a5 5 0 1 0 -10 0zM1028.69 20.5 a5 5 0 1 0 10 0 a5 5 0 1 0 -10 0zM1028.69 70.5 a5 5 0 1 0 10 0 a5 5 0 1 0 -10 0zM985.39 95.5 a5 5 0 1 0 10 0 a5 5 0 1 0 -10 0zM1028.69 220.5 a5 5 0 1 0 10 0 a5 5 0 1 0 -10 0zM1071.99 245.5 a5 5 0 1 0 10 0 a5 5 0 1 0 -10 0zM1071.99 295.5 a5 5 0 1 0 10 0 a5 5 0 1 0 -10 0zM1028.69 320.5 a5 5 0 1 0 10 0 a5 5 0 1 0 -10 0zM985.39 295.5 a5 5 0 1 0 10 0 a5 5 0 1 0 -10 0zM985.39 245.5 a5 5 0 1 0 10 0 a5 5 0 1 0 -10 0zM1071.99 -4.5 a5 5 0 1 0 10 0 a5 5 0 1 0 -10 0zM1115.29 20.5 a5 5 0 1 0 10 0 a5 5 0 1 0 -10 0zM1115.29 70.5 a5 5 0 1 0 10 0 a5 5 0 1 0 -10 0zM1071.99 95.5 a5 5 0 1 0 10 0 a5 5 0 1 0 -10 0zM1115.29 320.5 a5 5 0 1 0 10 0 a5 5 0 1 0 -10 0zM1115.29 370.5 a5 5 0 1 0 10 0 a5 5 0 1 0 -10 0zM1071.99 395.5 a5 5 0 1 0 10 0 a5 5 0 1 0 -10 0zM1028.69 370.5 a5 5 0 1 0 10 0 a5 5 0 1 0 -10 0zM1158.6 395.5 a5 5 0 1 0 10 0 a5 5 0 1 0 -10 0zM1158.6 445.5 a5 5 0 1 0 10 0 a5 5 0 1 0 -10 0zM1115.29 470.5 a5 5 0 1 0 10 0 a5 5 0 1 0 -10 0zM1071.99 445.5 a5 5 0 1 0 10 0 a5 5 0 1 0 -10 0zM1201.9 70.5 a5 5 0 1 0 10 0 a5 5 0 1 0 -10 0zM1245.2 95.5 a5 5 0 1 0 10 0 a5 5 0 1 0 -10 0zM1245.2 145.5 a5 5 0 1 0 10 0 a5 5 0 1 0 -10 0zM1201.9 170.5 a5 5 0 1 0 10 0 a5 5 0 1 0 -10 0zM1158.6 145.5 a5 5 0 1 0 10 0 a5 5 0 1 0 -10 0zM1158.6 95.5 a5 5 0 1 0 10 0 a5 5 0 1 0 -10 0zM1288.5 70.5 a5 5 0 1 0 10 0 a5 5 0 1 0 -10 0zM1331.81 95.5 a5 5 0 1 0 10 0 a5 5 0 1 0 -10 0zM1331.81 145.5 a5 5 0 1 0 10 0 a5 5 0 1 0 -10 0zM1288.5 170.5 a5 5 0 1 0 10 0 a5 5 0 1 0 -10 0zM1288.5 370.5 a5 5 0 1 0 10 0 a5 5 0 1 0 -10 0zM1331.81 395.5 a5 5 0 1 0 10 0 a5 5 0 1 0 -10 0zM1331.81 445.5 a5 5 0 1 0 10 0 a5 5 0 1 0 -10 0zM1288.5 470.5 a5 5 0 1 0 10 0 a5 5 0 1 0 -10 0zM1245.2 445.5 a5 5 0 1 0 10 0 a5 5 0 1 0 -10 0zM1245.2 395.5 a5 5 0 1 0 10 0 a5 5 0 1 0 -10 0zM1288.5 520.5 a5 5 0 1 0 10 0 a5 5 0 1 0 -10 0zM1331.81 545.5 a5 5 0 1 0 10 0 a5 5 0 1 0 -10 0zM1331.81 595.5 a5 5 0 1 0 10 0 a5 5 0 1 0 -10 0zM1288.5 620.5 a5 5 0 1 0 10 0 a5 5 0 1 0 -10 0zM1245.2 595.5 a5 5 0 1 0 10 0 a5 5 0 1 0 -10 0zM1245.2 545.5 a5 5 0 1 0 10 0 a5 5 0 1 0 -10 0zM1375.11 220.5 a5 5 0 1 0 10 0 a5 5 0 1 0 -10 0zM1418.41 245.5 a5 5 0 1 0 10 0 a5 5 0 1 0 -10 0zM1418.41 295.5 a5 5 0 1 0 10 0 a5 5 0 1 0 -10 0zM1375.11 320.5 a5 5 0 1 0 10 0 a5 5 0 1 0 -10 0zM1331.81 295.5 a5 5 0 1 0 10 0 a5 5 0 1 0 -10 0zM1331.81 245.5 a5 5 0 1 0 10 0 a5 5 0 1 0 -10 0zM1375.11 470.5 a5 5 0 1 0 10 0 a5 5 0 1 0 -10 0zM1375.11 520.5 a5 5 0 1 0 10 0 a5 5 0 1 0 -10 0zM1418.41 545.5 a5 5 0 1 0 10 0 a5 5 0 1 0 -10 0zM1418.41 595.5 a5 5 0 1 0 10 0 a5 5 0 1 0 -10 0zM1375.11 620.5 a5 5 0 1 0 10 0 a5 5 0 1 0 -10 0zM1461.71 520.5 a5 5 0 1 0 10 0 a5 5 0 1 0 -10 0zM1505.02 545.5 a5 5 0 1 0 10 0 a5 5 0 1 0 -10 0zM1505.02 595.5 a5 5 0 1 0 10 0 a5 5 0 1 0 -10 0zM1461.71 620.5 a5 5 0 1 0 10 0 a5 5 0 1 0 -10 0z" fill="rgba(6, 80, 156, 0.93)"></path></g><defs><mask id="SvgjsMask1000"><rect width="1440" height="560" fill="#ffffff"></rect></mask></defs></svg>