<svg id="visual" viewBox="0 0 960 540" width="960" height="540" xmlns="http://www.w3.org/2000/svg" xmlns:xlink="http://www.w3.org/1999/xlink" version="1.1"><rect x="0" y="0" width="960" height="540" fill="#001220"></rect><defs><linearGradient id="grad1_0" x1="43.8%" y1="0%" x2="100%" y2="100%"><stop offset="14.444444444444446%" stop-color="#5b8266" stop-opacity="1"></stop><stop offset="85.55555555555554%" stop-color="#5b8266" stop-opacity="1"></stop></linearGradient></defs><defs><linearGradient id="grad1_1" x1="43.8%" y1="0%" x2="100%" y2="100%"><stop offset="14.444444444444446%" stop-color="#5b8266" stop-opacity="1"></stop><stop offset="85.55555555555554%" stop-color="#001220" stop-opacity="1"></stop></linearGradient></defs><defs><linearGradient id="grad2_0" x1="0%" y1="0%" x2="56.3%" y2="100%"><stop offset="14.444444444444446%" stop-color="#5b8266" stop-opacity="1"></stop><stop offset="85.55555555555554%" stop-color="#5b8266" stop-opacity="1"></stop></linearGradient></defs><defs><linearGradient id="grad2_1" x1="0%" y1="0%" x2="56.3%" y2="100%"><stop offset="14.444444444444446%" stop-color="#001220" stop-opacity="1"></stop><stop offset="85.55555555555554%" stop-color="#5b8266" stop-opacity="1"></stop></linearGradient></defs><g transform="translate(960, 0)"><path d="M0 432C-53.8 416.4 -107.6 400.8 -156.9 378.8C-206.2 356.8 -251.1 328.3 -292 292C-333 255.8 -370 211.8 -390.8 161.9C-411.6 111.9 -416.3 56 -421 0L0 0Z" fill="#14494d"></path><path d="M0 216C-26.9 208.2 -53.8 200.4 -78.5 189.4C-103.1 178.4 -125.6 164.1 -146 146C-166.5 127.9 -185 105.9 -195.4 80.9C-205.8 56 -208.2 28 -210.5 0L0 0Z" fill="#5b8266"></path></g><g transform="translate(0, 540)"><path d="M0 -395C56.3 -399.4 112.6 -403.8 158.4 -382.5C204.3 -361.2 239.8 -314.1 272.2 -272.2C304.7 -230.4 334.2 -193.7 360.3 -149.2C386.4 -104.7 409.2 -52.4 432 0L0 0Z" fill="#14494d"></path><path d="M0 -197.5C28.1 -199.7 56.3 -201.9 79.2 -191.2C102.2 -180.6 119.9 -157 136.1 -136.1C152.4 -115.2 167.1 -96.9 180.2 -74.6C193.2 -52.4 204.6 -26.2 216 0L0 0Z" fill="#5b8266"></path></g></svg>