<svg xmlns="http://www.w3.org/2000/svg" version="1.1" xmlns:xlink="http://www.w3.org/1999/xlink" xmlns:svgjs="http://svgjs.dev/svgjs" width="1440" height="560" preserveAspectRatio="none" viewBox="0 0 1440 560"><g mask="url(&quot;#SvgjsMask1000&quot;)" fill="none"><rect width="1440" height="560" x="0" y="0" fill="#0e2a47"></rect><path d="M801.37 300.13a4.42 4.42 0 1 0 8.22-3.26z" stroke="#037b0b"></path><path d="M1282.61 127.43 a37.27 37.27 0 1 0 74.54 0 a37.27 37.27 0 1 0 -74.54 0z" stroke="#d3b714"></path><path d="M644.41 546.12L657.56 546.12L657.56 559.27L644.41 559.27z" fill="#037b0b"></path><path d="M1308.06 499.9 a46.91 46.91 0 1 0 93.82 0 a46.91 46.91 0 1 0 -93.82 0z" fill="#e73635"></path><path d="M28.31 50.92 a31.32 31.32 0 1 0 62.64 0 a31.32 31.32 0 1 0 -62.64 0z" stroke="#e73635"></path><path d="M980.3 494.65 a20.53 20.53 0 1 0 41.06 0 a20.53 20.53 0 1 0 -41.06 0z" fill="#d3b714"></path><path d="M1223.51 451.99L1225.57 451.99L1225.57 454.05L1223.51 454.05z" stroke="#037b0b"></path><path d="M828.2 356.08a48 48 0 1 0 90.48 32.1z" stroke="#e73635"></path><path d="M376.85 326.43L402.33 326.43L402.33 351.91L376.85 351.91z" stroke="#d3b714"></path><path d="M1464.06 526.86a40.97 40.97 0 1 0-55.31 60.46z" stroke="#037b0b"></path><path d="M1159.28 559.82L1202.55 559.82L1202.55 615.59L1159.28 615.59z" stroke="#037b0b"></path><path d="M1207.76-3.18a30.96 30.96 0 1 0-23.75 57.18z" stroke="#d3b714"></path><path d="M1035.19 140.95a1.65 1.65 0 1 0 3.24 0.66z" fill="#037b0b"></path><path d="M463.1 113.92a48.81 48.81 0 1 0 93.52 27.98z" fill="#d3b714"></path><path d="M627.32 490.96L651.97 490.96L651.97 528.6L627.32 528.6z" stroke="#037b0b"></path><path d="M786.18 510.24L815.13 510.24L815.13 523.91L786.18 523.91z" stroke="#e73635"></path><path d="M1121.25 86.31L1166.75 86.31L1166.75 130.37L1121.25 130.37z" stroke="#d3b714"></path><path d="M769.51 150.61 a31.59 31.59 0 1 0 63.18 0 a31.59 31.59 0 1 0 -63.18 0z" stroke="#e73635"></path><path d="M227.35 214.1L248.42 214.1L248.42 235.17L227.35 235.17z" stroke="#d3b714"></path><path d="M1031.06 266L1053.86 266L1053.86 288.8L1031.06 288.8z" fill="#e73635"></path><path d="M298.64 537.82L318.45 537.82L318.45 557.63L298.64 557.63z" stroke="#d3b714"></path><path d="M669.5 189.22a19 19 0 1 0-37.6-5.5z" fill="#d3b714"></path><path d="M213.92 502.98 a45.57 45.57 0 1 0 91.14 0 a45.57 45.57 0 1 0 -91.14 0z" stroke="#037b0b"></path><path d="M1393.26 473.12a43.2 43.2 0 1 0 65.77 56.03z" stroke="#037b0b"></path><path d="M431.18 138.31L481.21 138.31L481.21 150.67L431.18 150.67z" fill="#e73635"></path><path d="M1352.76 270.28L1391.43 270.28L1391.43 308.95L1352.76 308.95z" stroke="#037b0b"></path><path d="M632.31 316.76L641.5 316.76L641.5 325.95L632.31 325.95z" fill="#e73635"></path><path d="M415.33 453.94L439.57 453.94L439.57 483.91L415.33 483.91z" fill="#037b0b"></path><path d="M513.39 125.46L515.81 125.46L515.81 175.59L513.39 175.59z" stroke="#d3b714"></path><path d="M421.91 491.3L463.05 491.3L463.05 521.53L421.91 521.53z" stroke="#d3b714"></path><path d="M944.33 4.35L949.32 4.35L949.32 22.45L944.33 22.45z" fill="#d3b714"></path><path d="M856.6 502.64 a36.96 36.96 0 1 0 73.92 0 a36.96 36.96 0 1 0 -73.92 0z" stroke="#d3b714"></path><path d="M154.1 436.71L203.82 436.71L203.82 486.43L154.1 486.43z" stroke="#037b0b"></path></g><defs><mask id="SvgjsMask1000"><rect width="1440" height="560" fill="#ffffff"></rect></mask></defs></svg>